P2
13 23
255
15 15 15 15 15 15 15 15 15 15 15 15 15 
15 0 0 0 0 0 0 0 0 0 0 0 15 
15 0 0 0 0 0 0 0 0 0 0 0 15 
15 0 0 0 0 0 0 0 0 0 0 0 15 
15 15 15 15 0 0 0 0 0 15 15 15 15 
0 0 0 95 0 0 0 0 0 95 0 0 0 
0 0 0 95 0 0 0 0 0 95 0 0 0 
0 0 0 95 0 0 0 0 0 95 0 0 0 
0 0 0 95 0 0 0 0 0 95 0 0 0 
0 95 0 95 0 0 0 0 0 95 0 95 0 
0 95 0 95 0 0 0 0 0 95 0 95 0 
0 95 95 95 0 0 0 0 0 95 95 95 0 
15 0 0 0 0 0 0 0 0 0 0 0 15 
15 0 0 0 0 0 0 0 0 0 0 0 15 
15 0 0 0 0 0 0 0 0 0 0 0 15 
15 15 15 15 0 0 0 0 0 15 15 15 15 
0 0 0 95 0 0 0 0 0 95 0 0 0 
0 0 0 95 0 0 0 0 0 95 0 0 0 
0 0 0 95 0 0 0 0 0 95 0 0 0 
0 0 0 95 0 0 0 0 0 95 0 0 0 
0 95 0 95 0 0 0 0 0 95 0 95 0 
0 95 0 95 0 0 0 0 0 95 0 95 0 
0 95 95 95 0 0 0 0 0 95 95 95 0 
