P2
13 13
255
0 15 15 0 15 15 15 15 0 15 15 15 0 
0 31 31 0 31 31 31 31 0 31 31 31 0 
0 47 47 0 47 47 47 47 0 47 47 47 0 
0 63 63 0 63 63 63 63 0 63 63 63 0 
0 0 0 0 0 0 0 0 0 0 0 0 0 
95 95 95 95 95 95 95 95 95 95 95 95 95 
111 111 111 111 111 111 111 111 111 111 111 111 111 
127 127 127 127 127 127 127 127 127 127 127 127 127 
143 143 143 143 143 143 143 143 143 143 143 143 143 
159 159 159 159 159 159 159 159 159 159 159 159 159 
175 175 175 175 175 175 175 175 175 175 175 175 175 
191 191 191 191 191 191 191 191 191 191 191 191 191 
207 207 207 207 207 207 207 207 207 207 207 207 207 
